<?xml version="1.0" encoding="UTF-8"?>
<svg width="85px" height="84px" viewBox="0 0 85 84" version="1.1" xmlns="http://www.w3.org/2000/svg" xmlns:xlink="http://www.w3.org/1999/xlink" xmlns:sketch="http://www.bohemiancoding.com/sketch/ns">
    <!-- Generator: Sketch 3.5.1 (25234) - http://www.bohemiancoding.com/sketch -->
    <title>Untitled</title>
    <desc>Created with Sketch.</desc>
    <defs></defs>
    <g id="Page-1" stroke="none" stroke-width="1" fill="none" fill-rule="evenodd" sketch:type="MSPage">
        <path d="M18.7758242,60.8383929 C19.0824176,60.8383929 19.2868132,60.7375 19.4912088,60.5357143 L21.6373626,58.4169643 C22.0461538,58.0133929 22.0461538,57.4080357 21.6373626,57.0044643 C21.2285714,56.6008929 20.6153846,56.6008929 20.2065934,57.0044643 L18.0604396,59.1232143 C17.6516484,59.5267857 17.6516484,60.1321429 18.0604396,60.5357143 C18.2648352,60.7375 18.5714286,60.8383929 18.7758242,60.8383929 L18.7758242,60.8383929 Z" id="Shape" fill="#000000" sketch:type="MSShapeGroup"></path>
        <path d="M17.1406593,66.7910714 C16.7318681,66.3875 16.1186813,66.3875 15.7098901,66.7910714 L4.57032967,77.7883929 C4.16153846,78.1919643 4.16153846,78.7973214 4.57032967,79.2008929 C4.77472527,79.4026786 5.08131868,79.5035714 5.28571429,79.5035714 C5.49010989,79.5035714 5.7967033,79.4026786 6.0010989,79.2008929 L17.1406593,68.2035714 C17.5494505,67.8 17.5494505,67.1946429 17.1406593,66.7910714 L17.1406593,66.7910714 Z" id="Shape" fill="#000000" sketch:type="MSShapeGroup"></path>
        <path d="M8.86263736,71.0285714 L17.0384615,62.9571429 C17.4472527,62.5535714 17.4472527,61.9482143 17.0384615,61.5446429 C16.6296703,61.1410714 16.0164835,61.1410714 15.6076923,61.5446429 L7.43186813,69.6160714 C7.02307692,70.0196429 7.02307692,70.625 7.43186813,71.0285714 C7.63626374,71.2303571 7.94285714,71.33125 8.14725275,71.33125 C8.35164835,71.33125 8.65824176,71.2303571 8.86263736,71.0285714 L8.86263736,71.0285714 Z" id="Shape" fill="#000000" sketch:type="MSShapeGroup"></path>
        <path d="M18.2648352,75.9723214 L16.1186813,78.0910714 C15.7098901,78.4946429 15.7098901,79.1 16.1186813,79.5035714 C16.3230769,79.7053571 16.6296703,79.80625 16.8340659,79.80625 C17.0384615,79.80625 17.3450549,79.7053571 17.5494505,79.5035714 L19.6956044,77.3848214 C20.1043956,76.98125 20.1043956,76.3758929 19.6956044,75.9723214 C19.2868132,75.6696429 18.6736264,75.6696429 18.2648352,75.9723214 L18.2648352,75.9723214 Z" id="Shape" fill="#000000" sketch:type="MSShapeGroup"></path>
        <path d="M30.4263736,65.4794643 C30.0175824,65.0758929 29.4043956,65.0758929 28.9956044,65.4794643 L20.8197802,73.5508929 C20.410989,73.9544643 20.410989,74.5598214 20.8197802,74.9633929 C21.0241758,75.1651786 21.3307692,75.2660714 21.5351648,75.2660714 C21.7395604,75.2660714 22.0461538,75.1651786 22.2505495,74.9633929 L30.4263736,66.8919643 C30.732967,66.4883929 30.732967,65.8830357 30.4263736,65.4794643 L30.4263736,65.4794643 Z" id="Shape" fill="#000000" sketch:type="MSShapeGroup"></path>
        <path d="M78.5615385,23.1044643 C79.3791209,22.2973214 87.1461538,14.83125 83.467033,2.11875 C83.3648352,1.81607143 83.0582418,1.51339286 82.7516484,1.4125 C69.8747253,-2.21964286 62.0054945,5.75089286 61.4945055,6.35625 L34.9230769,32.5883929 L34.8208791,32.4875 C34.4120879,32.0839286 33.9010989,32.0839286 33.4923077,32.3866071 L19.9,42.5767857 C19.6956044,42.7785714 19.4912088,42.9803571 19.4912088,43.2830357 C19.4912088,43.5857143 19.5934066,43.8883929 19.7978022,44.0901786 L21.5351648,45.8053571 L18.6736264,48.6303571 C18.4692308,48.8321429 18.367033,49.0339286 18.367033,49.3366071 C18.367033,49.6392857 18.4692308,49.8410714 18.6736264,50.0428571 L19.389011,50.7491071 L8.35164835,61.5446429 C7.94285714,61.9482143 7.94285714,62.5535714 8.35164835,62.9571429 C8.55604396,63.1589286 8.86263736,63.2598214 9.06703297,63.2598214 C9.27142857,63.2598214 9.57802198,63.1589286 9.78241758,62.9571429 L20.7175824,52.1616071 L25.6230769,57.0044643 L25.6230769,57.0044643 L18.2648352,64.26875 C17.856044,64.6723214 17.856044,65.2776786 18.2648352,65.68125 C18.4692308,65.8830357 18.7758242,65.9839286 18.9802198,65.9839286 C19.1846154,65.9839286 19.4912088,65.8830357 19.6956044,65.68125 L27.0538462,58.4169643 L27.0538462,58.4169643 L28.3824176,59.7285714 L13.8703297,74.2571429 C13.4615385,74.6607143 13.4615385,75.2660714 13.8703297,75.6696429 C14.0747253,75.8714286 14.3813187,75.9723214 14.5857143,75.9723214 C14.7901099,75.9723214 15.0967033,75.8714286 15.3010989,75.6696429 L29.9153846,61.2419643 L33.7989011,65.0758929 C34.0032967,65.2776786 34.2076923,65.3785714 34.5142857,65.3785714 C34.8208791,65.3785714 35.0252747,65.2776786 35.2296703,65.0758929 L38.0912088,62.2508929 L40.2373626,64.3696429 C40.4417582,64.5714286 40.6461538,64.6723214 40.9527473,64.6723214 L41.0549451,64.6723214 C41.3615385,64.6723214 41.6681319,64.4705357 41.7703297,64.26875 L52.0923077,50.85 C52.3989011,50.4464286 52.3989011,49.8410714 51.9901099,49.5383929 L51.9901099,49.5383929 L78.5615385,23.1044643 L78.5615385,23.1044643 L78.5615385,23.1044643 Z M81.7296703,3.22857143 C84.2846154,12.9142857 79.6857143,19.06875 77.8461538,20.9857143 L63.7428571,7.0625 C65.7868132,5.24642857 72.2252747,0.807142857 81.7296703,3.22857143 L81.7296703,3.22857143 Z M34.5142857,62.85625 L20.8197802,49.3366071 L22.9659341,47.2178571 L36.6604396,60.7375 L34.5142857,62.85625 L34.5142857,62.85625 Z M40.8505495,62.0491071 L22.0461538,43.4848214 L34.0032967,34.5053571 L49.9461538,50.2446429 L40.8505495,62.0491071 L40.8505495,62.0491071 Z M50.5593407,47.9241071 L36.3538462,34.0008929 L62.2098901,8.475 L76.3131868,22.3982143 L50.5593407,47.9241071 L50.5593407,47.9241071 Z" id="Shape" fill="#000000" sketch:type="MSShapeGroup"></path>
        <path d="M57.5087912,17.9589286 C54.9538462,20.48125 54.9538462,24.71875 57.5087912,27.2410714 C58.8373626,28.5526786 60.4725275,29.1580357 62.2098901,29.1580357 C63.9472527,29.1580357 65.5824176,28.5526786 66.910989,27.2410714 C69.4659341,24.71875 69.4659341,20.48125 66.910989,17.9589286 C64.356044,15.4366071 60.0637363,15.4366071 57.5087912,17.9589286 L57.5087912,17.9589286 Z M65.4802198,25.9294643 C63.6406593,27.7455357 60.7791209,27.7455357 58.9395604,25.9294643 C57.1,24.1133929 57.1,21.2883929 58.9395604,19.4723214 C60.7791209,17.65625 63.6406593,17.65625 65.4802198,19.4723214 C67.3197802,21.1875 67.3197802,24.1133929 65.4802198,25.9294643 L65.4802198,25.9294643 Z" id="Shape" fill="#000000" sketch:type="MSShapeGroup"></path>
        <path d="M59.9615385,21.4901786 C60.3703297,21.89375 60.9835165,21.89375 61.3923077,21.4901786 C61.9032967,20.9857143 62.6186813,20.9857143 63.0274725,21.4901786 C63.2318681,21.6919643 63.5384615,21.7928571 63.7428571,21.7928571 C63.9472527,21.7928571 64.2538462,21.6919643 64.4582418,21.4901786 C64.867033,21.0866071 64.867033,20.48125 64.4582418,20.0776786 C63.2318681,18.8669643 61.1879121,18.8669643 59.8593407,20.0776786 C59.6549451,20.48125 59.6549451,21.0866071 59.9615385,21.4901786 L59.9615385,21.4901786 Z" id="Shape" fill="#000000" sketch:type="MSShapeGroup"></path>
        <path d="M27.7692308,79.80625 C27.7692308,79.7053571 27.667033,79.6044643 27.5648352,79.6044643 L26.6450549,79.3017857 L26.3384615,78.39375 C26.3384615,78.2928571 26.2362637,78.1919643 26.1340659,78.1919643 C26.0318681,78.1919643 25.9296703,78.1919643 25.9296703,78.2928571 L25.4186813,79.1 L24.4989011,79.1 C24.3967033,79.1 24.2945055,79.2008929 24.2945055,79.2008929 L24.2945055,79.5035714 L24.9076923,80.2098214 L24.6010989,81.1178571 C24.6010989,81.21875 24.6010989,81.3196429 24.7032967,81.4205357 C24.8054945,81.5214286 24.9076923,81.5214286 25.0098901,81.5214286 L25.9296703,81.21875 L26.6450549,81.7232143 L26.7472527,81.7232143 L26.8494505,81.7232143 C26.9516484,81.7232143 26.9516484,81.6223214 26.9516484,81.5214286 L26.9516484,80.6133929 L27.667033,80.1089286 C27.7692308,79.9071429 27.7692308,79.9071429 27.7692308,79.80625 L27.7692308,79.80625 Z" id="Shape" fill="#000000" sketch:type="MSShapeGroup"></path>
        <path d="M3.24175824,44.7964286 L2.93516484,45.7044643 C2.93516484,45.8053571 2.93516484,45.90625 3.03736264,46.0071429 C3.13956044,46.1080357 3.24175824,46.1080357 3.34395604,46.1080357 L4.26373626,45.8053571 L4.97912088,46.3098214 L5.08131868,46.3098214 L5.18351648,46.3098214 C5.28571429,46.3098214 5.28571429,46.2089286 5.28571429,46.1080357 L5.28571429,45.2 L6.0010989,44.6955357 C6.1032967,44.5946429 6.1032967,44.49375 6.1032967,44.49375 C6.1032967,44.3928571 6.0010989,44.2919643 5.8989011,44.2919643 L4.97912088,43.9892857 L4.67252747,43.08125 C4.67252747,42.9803571 4.57032967,42.8794643 4.46813187,42.8794643 C4.36593407,42.8794643 4.26373626,42.8794643 4.26373626,42.9803571 L3.75274725,43.7875 L2.83296703,43.7875 C2.73076923,43.7875 2.62857143,43.8883929 2.62857143,43.8883929 L2.62857143,44.1910714 L3.24175824,44.7964286 L3.24175824,44.7964286 Z" id="Shape" fill="#000000" sketch:type="MSShapeGroup"></path>
        <path d="M1.0956044,66.9928571 C1.0956044,67.09375 1.1978022,67.09375 1.3,67.09375 L2.21978022,67.09375 L2.73076923,67.9008929 C2.73076923,68.0017857 2.83296703,68.0017857 2.93516484,68.0017857 L2.93516484,68.0017857 C3.03736264,68.0017857 3.13956044,67.9008929 3.13956044,67.8 L3.44615385,66.8919643 L4.36593407,66.6901786 C4.46813187,66.6901786 4.57032967,66.5892857 4.57032967,66.4883929 C4.57032967,66.3875 4.57032967,66.2866071 4.46813187,66.2866071 L3.75274725,65.68125 L3.85494505,64.7732143 C3.85494505,64.6723214 3.85494505,64.5714286 3.75274725,64.5714286 L3.44615385,64.5714286 L2.62857143,65.0758929 L1.70879121,64.7732143 L1.4021978,64.7732143 C1.3,64.8741071 1.3,64.975 1.3,65.0758929 L1.5043956,65.9839286 L0.891208791,66.6901786 C0.993406593,66.7910714 0.993406593,66.8919643 1.0956044,66.9928571 L1.0956044,66.9928571 Z" id="Shape" fill="#000000" sketch:type="MSShapeGroup"></path>
        <path d="M10.7021978,48.4285714 L11.621978,48.4285714 L12.132967,49.2357143 C12.132967,49.3366071 12.2351648,49.3366071 12.3373626,49.3366071 L12.3373626,49.3366071 C12.4395604,49.3366071 12.5417582,49.2357143 12.5417582,49.1348214 L12.8483516,48.2267857 L13.7681319,48.025 C13.8703297,48.025 13.9725275,47.9241071 13.9725275,47.8232143 C13.9725275,47.7223214 13.9725275,47.6214286 13.8703297,47.6214286 L13.1549451,47.0160714 L13.2571429,46.1080357 C13.2571429,46.0071429 13.2571429,45.90625 13.1549451,45.90625 L12.8483516,45.90625 L12.0307692,46.4107143 L11.110989,46.1080357 L10.8043956,46.1080357 C10.7021978,46.2089286 10.7021978,46.3098214 10.7021978,46.4107143 L10.9065934,47.31875 L10.2934066,48.025 C10.1912088,48.1258929 10.1912088,48.2267857 10.2934066,48.3276786 C10.4978022,48.4285714 10.6,48.4285714 10.7021978,48.4285714 L10.7021978,48.4285714 Z" id="Shape" fill="#000000" sketch:type="MSShapeGroup"></path>
        <path d="M8.96483516,82.1267857 C8.96483516,82.2276786 9.06703297,82.2276786 9.16923077,82.2276786 L10.089011,82.2276786 L10.6,83.0348214 C10.6,83.1357143 10.7021978,83.1357143 10.8043956,83.1357143 L10.8043956,83.1357143 C10.9065934,83.1357143 11.0087912,83.0348214 11.0087912,82.9339286 L11.3153846,82.0258929 L12.2351648,81.8241071 C12.3373626,81.8241071 12.4395604,81.7232143 12.4395604,81.6223214 C12.4395604,81.5214286 12.4395604,81.4205357 12.3373626,81.4205357 L11.621978,80.8151786 L11.7241758,79.9071429 C11.7241758,79.80625 11.7241758,79.7053571 11.621978,79.7053571 L11.3153846,79.7053571 L10.4978022,80.2098214 L9.57802198,79.9071429 L9.27142857,79.9071429 C9.16923077,80.0080357 9.16923077,80.1089286 9.16923077,80.2098214 L9.37362637,81.1178571 L8.76043956,81.8241071 C8.86263736,81.925 8.86263736,82.0258929 8.96483516,82.1267857 L8.96483516,82.1267857 Z" id="Shape" fill="#000000" sketch:type="MSShapeGroup"></path>
        <path d="M31.9593407,76.98125 C32.1637363,77.2839286 32.4703297,77.5866071 32.8791209,77.5866071 L32.8791209,77.5866071 L35.2296703,77.5866071 L36.5582418,79.5035714 C36.7626374,79.80625 37.0692308,79.9071429 37.3758242,79.9071429 L37.478022,79.9071429 C37.8868132,79.80625 38.1934066,79.6044643 38.2956044,79.2008929 L39.010989,76.98125 L41.2593407,76.275 C41.6681319,76.1741071 41.8725275,75.8714286 41.9747253,75.4678571 C42.0769231,75.0642857 41.8725275,74.6607143 41.5659341,74.4589286 L39.6241758,73.1473214 L39.7263736,70.8267857 C39.7263736,70.4232143 39.521978,70.1205357 39.2153846,69.91875 C38.9087912,69.7169643 38.5,69.8178571 38.0912088,70.0196429 L36.1494505,71.4321429 L34.0032967,70.625 C33.5945055,70.5241071 33.1857143,70.625 32.9813187,70.8267857 C32.7769231,71.0285714 32.5725275,71.5330357 32.7769231,71.8357143 L33.4923077,74.0553571 L32.0615385,75.8714286 C31.8571429,76.275 31.7549451,76.6785714 31.9593407,76.98125 L31.9593407,76.98125 Z M35.5362637,73.9544643 L35.3318681,73.1473214 L36.1494505,73.45 C36.456044,73.5508929 36.8648352,73.5508929 37.0692308,73.3491071 L37.6824176,72.8446429 L37.6824176,73.6517857 C37.6824176,73.9544643 37.7846154,74.2571429 38.0912088,74.4589286 L38.7043956,74.9633929 L37.989011,75.2660714 C37.6824176,75.3669643 37.3758242,75.56875 37.2736264,75.9723214 L37.0692308,76.6785714 L36.5582418,75.9723214 C36.3538462,75.6696429 36.0472527,75.56875 35.7406593,75.56875 L35.7406593,75.56875 L34.9230769,75.56875 L35.4340659,74.9633929 C35.6384615,74.6607143 35.6384615,74.2571429 35.5362637,73.9544643 L35.5362637,73.9544643 Z" id="Shape" fill="#000000" sketch:type="MSShapeGroup"></path>
        <path d="M1.4021978,57.6098214 L3.75274725,57.4080357 L5.28571429,59.2241071 C5.49010989,59.4258929 5.7967033,59.6276786 6.1032967,59.6276786 L6.30769231,59.6276786 C6.71648352,59.5267857 7.02307692,59.2241071 7.02307692,58.8205357 L7.53406593,56.6008929 L9.68021978,55.6928571 C10.089011,55.5919643 10.2934066,55.1883929 10.2934066,54.7848214 C10.2934066,54.38125 10.089011,54.0785714 9.78241758,53.8767857 L7.73846154,52.6660714 L7.63626374,50.3455357 C7.63626374,49.9419643 7.32967033,49.6392857 7.02307692,49.4375 C6.61428571,49.3366071 6.20549451,49.3366071 6.0010989,49.6392857 L4.26373626,51.1526786 L2.01538462,50.5473214 C1.60659341,50.4464286 1.1978022,50.5473214 0.993406593,50.85 C0.789010989,51.1526786 0.686813187,51.55625 0.789010989,51.8589286 L1.70879121,53.9776786 L0.482417582,55.8946429 C0.278021978,56.1973214 0.278021978,56.6008929 0.482417582,57.0044643 C0.584615385,57.5089286 0.993406593,57.6098214 1.4021978,57.6098214 L1.4021978,57.6098214 Z M3.75274725,53.7758929 L3.44615385,53.0696429 L4.26373626,53.2714286 C4.57032967,53.3723214 4.97912088,53.2714286 5.18351648,53.0696429 L5.7967033,52.5651786 L5.8989011,53.3723214 C5.8989011,53.675 6.1032967,53.9776786 6.40989011,54.1794643 L7.12527473,54.5830357 L6.30769231,54.8857143 C6.0010989,54.9866071 5.7967033,55.2892857 5.69450549,55.5919643 L5.49010989,56.3991071 L4.97912088,55.79375 C4.77472527,55.5919643 4.46813187,55.3901786 4.16153846,55.3901786 L4.05934066,55.3901786 L3.24175824,55.3901786 L3.65054945,54.6839286 C3.85494505,54.4821429 3.95714286,54.0785714 3.75274725,53.7758929 L3.75274725,53.7758929 Z" id="Shape" fill="#000000" sketch:type="MSShapeGroup"></path>
    </g>
</svg>